<?xml version="1.0" encoding="UTF-8" standalone="no"?>
<!-- Generator: Adobe Illustrator 12.0.0, SVG Export Plug-In . SVG Version: 6.00 Build 51448)  -->

<svg
   version="1.1"
   id="Layer_1"
   width="480.1181641"
   height="401"
   viewBox="0 0 480.118 401"
   overflow="visible"
   enable-background="new 0 0 480.1181641 401"
   xml:space="preserve"
   sodipodi:version="0.32"
   inkscape:version="1.4.2 (ebf0e940d0, 2025-05-08)"
   sodipodi:docname="padded-tunnel-logo.svg"
   inkscape:output_extension="org.inkscape.output.svg.inkscape"
   xmlns:inkscape="http://www.inkscape.org/namespaces/inkscape"
   xmlns:sodipodi="http://sodipodi.sourceforge.net/DTD/sodipodi-0.dtd"
   xmlns="http://www.w3.org/2000/svg"
   xmlns:svg="http://www.w3.org/2000/svg"
   xmlns:rdf="http://www.w3.org/1999/02/22-rdf-syntax-ns#"
   xmlns:cc="http://creativecommons.org/ns#"
   xmlns:dc="http://purl.org/dc/elements/1.1/"><metadata
   id="metadata114"><rdf:RDF><cc:Work
       rdf:about=""><dc:format>image/svg+xml</dc:format><dc:type
         rdf:resource="http://purl.org/dc/dcmitype/StillImage" /></cc:Work></rdf:RDF></metadata><defs
   id="defs112"><rect
     x="137.68094"
     y="148.27179"
     width="317.72526"
     height="55.60192"
     id="rect1" /><inkscape:perspective
     sodipodi:type="inkscape:persp3d"
     inkscape:vp_x="0 : 200.5 : 1"
     inkscape:vp_y="0 : 1000 : 0"
     inkscape:vp_z="480.11816 : 200.5 : 1"
     inkscape:persp3d-origin="240.05908 : 133.66667 : 1"
     id="perspective116" /></defs><sodipodi:namedview
   inkscape:window-height="1368"
   inkscape:window-width="2560"
   inkscape:pageshadow="2"
   inkscape:pageopacity="0.0"
   guidetolerance="10.0"
   gridtolerance="10.0"
   objecttolerance="10.0"
   borderopacity="1.0"
   bordercolor="#666666"
   pagecolor="#ffffff"
   id="base"
   showgrid="false"
   inkscape:zoom="2.2661088"
   inkscape:cx="195.048"
   inkscape:cy="201.88792"
   inkscape:window-x="0"
   inkscape:window-y="0"
   inkscape:current-layer="g11"
   inkscape:showpageshadow="2"
   inkscape:pagecheckerboard="0"
   inkscape:deskcolor="#d1d1d1"
   inkscape:window-maximized="1" />
<g
   id="g3">
	<g
   id="g5">
		<path
   fill-rule="evenodd"
   clip-rule="evenodd"
   fill="#FFFFFF"
   d="M444.0585938,0.5    c-31.6064453,12.3691406-66.0097656,19.1582031-102,19.1582031c-35.9892578,0-70.3925781-6.7895508-101.9995117-19.1582031    c-31.6064453,12.3686523-66.0102539,19.1582031-102,19.1582031S67.6655273,12.8691406,36.059082,0.5    C13.4384766,39.8037109,0.5,85.3867188,0.5,133.9912109C0.5,272.3984375,105.4160156,386.2978516,240.059082,400.5    c134.6430664-14.2021484,239.559082-128.1015625,239.559082-266.5087891    C479.6181641,85.3867188,466.6796875,39.8037109,444.0585938,0.5z"
   id="path7" />
		
			
	</g>
	<g
   id="g11">
		<path
   fill="#003882"
   d="M13.7524414,108.5h452.612793c0.828125,8.3837891,1.2529297,16.8876953,1.2529297,25.4912109    c0,131.7705078-99.5634766,240.2998047-227.559082,254.4384766C112.0629883,374.2910156,12.5,265.7617188,12.5,133.9912109    C12.5,125.3876953,12.9238281,116.8837891,13.7524414,108.5z"
   id="path13"
   style="fill:#003f87;fill-opacity:1" />
	<text
   xml:space="preserve"
   id="text1"
   style="font-style:normal;font-variant:normal;font-weight:normal;font-stretch:normal;font-size:37.3333px;font-family:'Roadgeek 2005 Series E';-inkscape-font-specification:'Roadgeek 2005 Series E, Normal';font-variant-ligatures:normal;font-variant-caps:normal;font-variant-numeric:normal;font-variant-east-asian:normal;text-align:start;writing-mode:lr-tb;direction:ltr;white-space:pre;shape-inside:url(#rect1);display:inline;fill:#ffffff;stroke-width:0"
   transform="translate(-47.658789,-37.509231)"><tspan
     x="137.68164"
     y="181.74054"
     id="tspan2">PADDED TUNNEL</tspan></text></g>
	<g
   id="g15">
		<path
   fill="#B01C2E"
   d="M464.8935547,96.5H15.2241211c4.2407227-28.9111328,13.3129883-56.2416992,26.3676758-81.1552734    c30.2124023,10.5712891,62.6806641,16.3134766,96.4672852,16.3134766c35.8583984,0,70.2319336-6.46875,102-18.3125    c31.7680664,11.84375,66.1420898,18.3125,101.9995117,18.3125c33.7871094,0,66.2548828-5.7421875,96.4677734-16.3134766    C451.5810547,40.2583008,460.6533203,67.5888672,464.8935547,96.5z"
   id="path17"
   style="fill:#af1e2d;fill-opacity:1" />
	</g>
	
	<g
   id="g61"
   style="fill:#ffffff;fill-opacity:1">
		<g
   id="g63"
   style="fill:#ffffff;fill-opacity:1">
			
				<rect
   x="99.125"
   y="43.1918945"
   fill-rule="evenodd"
   clip-rule="evenodd"
   fill="#FFFFFF"
   width="6.2246094"
   height="38.6166992"
   id="rect65"
   style="fill:#ffffff;fill-opacity:1" />
		</g>
		<g
   id="g67"
   style="fill:#ffffff;fill-opacity:1">
			<polygon
   fill-rule="evenodd"
   clip-rule="evenodd"
   fill="#FFFFFF"
   points="135.428,81.8086 120.673,55.6416 120.673,81.8086 114.563,81.8086 114.563,43.1919 120.673,43.1919 134.736,67.8604 134.736,43.1919 140.846,43.1919 140.846,81.8086"
   id="polygon69"
   style="fill:#ffffff;fill-opacity:1" />
		</g>
		<g
   id="g71"
   style="fill:#ffffff;fill-opacity:1">
			<polygon
   fill-rule="evenodd"
   clip-rule="evenodd"
   fill="#FFFFFF"
   points="161.525,48.6099 161.525,81.8086 155.416,81.8086 155.416,48.6099 146.597,48.6099 146.597,43.1919 170.459,43.1919 170.459,48.6099"
   id="polygon73"
   style="fill:#ffffff;fill-opacity:1" />
		</g>
		<g
   id="g75"
   style="fill:#ffffff;fill-opacity:1">
			<polygon
   fill-rule="evenodd"
   clip-rule="evenodd"
   fill="#FFFFFF"
   points="176.169,81.8086 176.169,43.1919 198.936,43.1919 198.936,49.3013 182.278,49.3013 182.278,58.7539 193.518,58.7539 193.518,64.9785 182.278,64.9785 182.278,75.584 200.146,75.584 200.146,81.8086"
   id="polygon77"
   style="fill:#ffffff;fill-opacity:1" />
		</g>
		<g
   id="g79"
   style="fill:#ffffff;fill-opacity:1">
			<path
   fill-rule="evenodd"
   clip-rule="evenodd"
   fill="#FFFFFF"
   d="M226.2587891,81.8085938l-6.2246094-16.8300781h-7.3198242     v16.8300781h-6.109375V43.1918945h12.737793c1.4985352,0,2.7856445,0.0864258,3.8613281,0.2592773     c1.0761719,0.1728516,2.0942383,0.4902344,3.0546875,0.9511719c0.8457031,0.4228516,1.6235352,0.9702148,2.3344727,1.6425781     s1.3256836,1.440918,1.8442383,2.3056641c0.519043,0.8642578,0.9223633,1.7866211,1.2104492,2.7666016     c0.2885742,0.9794922,0.4321289,1.949707,0.4321289,2.9101563c0,1.0375977-0.1435547,2.0463867-0.4321289,3.0263672     c-0.2880859,0.9794922-0.6914063,1.9018555-1.2104492,2.7666016c-0.5185547,0.8642578-1.1523438,1.6425781-1.9018555,2.3339844     s-1.565918,1.2294922-2.449707,1.6142578l6.8012695,18.0400391H226.2587891z M225.9707031,54.0273438     c0-0.8066406-0.2109375-1.5751953-0.6337891-2.3051758s-1.0185547-1.3061523-1.7871094-1.7290039     c-0.4990234-0.2695313-0.9604492-0.4516602-1.3828125-0.5478516c-0.4228516-0.0957031-1.1337891-0.144043-2.1328125-0.144043     h-7.3198242v9.4526367h7.3198242c0.9609375,0,1.6621094-0.0385742,2.1040039-0.1152344     c0.4418945-0.0771484,0.9125977-0.25,1.4116211-0.5185547c0.7685547-0.4228516,1.3642578-1.0087891,1.7871094-1.7583008     C225.7592773,55.612793,225.9707031,54.8344727,225.9707031,54.0273438z"
   id="path81"
   style="fill:#ffffff;fill-opacity:1" />
		</g>
		<g
   id="g83"
   style="fill:#ffffff;fill-opacity:1">
			<path
   fill-rule="evenodd"
   clip-rule="evenodd"
   fill="#FFFFFF"
   d="M262.9658203,70.6845703     c0,1.7675781-0.3271484,3.4003906-0.9794922,4.8994141c-0.6533203,1.4980469-1.5947266,2.8046875-2.8242188,3.9189453     c-1.0761719,0.9609375-2.3339844,1.7001953-3.7753906,2.2192383S252.3984375,82.5,250.7460938,82.5     c-3.3417969,0-6.1953125-0.8930664-8.5585938-2.6796875c-2.362793-1.7871094-4.1977539-4.159668-5.5039063-7.1181641     l5.8212891-2.1328125c0.8066406,1.8447266,1.9208984,3.2568359,3.3427734,4.2363281     c1.421875,0.9799805,3.0546875,1.4697266,4.8984375,1.4697266c1.8066406,0,3.2578125-0.5478516,4.3525391-1.6425781     c1.0947266-1.0952148,1.6425781-2.4492188,1.6425781-4.0634766c0-1.2680664-0.3369141-2.3056641-1.0087891-3.1123047     s-1.546875-1.4892578-2.6230469-2.0458984c-1.0751953-0.5576172-2.2568359-1.0473633-3.5439453-1.4697266     c-1.2871094-0.4228516-2.5654297-0.8837891-3.8330078-1.3837891c-0.5761719-0.2304688-1.2871094-0.5566406-2.1328125-0.9794922     s-1.6621094-1.0087891-2.4492188-1.7578125c-0.7880859-0.7495117-1.4599609-1.6816406-2.0175781-2.7954102     c-0.5571289-1.1147461-0.8354492-2.4785156-0.8354492-4.0922852c0-1.8828125,0.3071289-3.4873047,0.9223633-4.8125     c0.6142578-1.3261719,1.4501953-2.4018555,2.5068359-3.2280273s2.3242188-1.4311523,3.8046875-1.8154297     C247.0097656,42.6923828,248.6142578,42.5,250.34375,42.5c2.7275391,0,5.0039063,0.7109375,6.8300781,2.1328125     c1.8242188,1.421875,3.2177734,3.3427734,4.1777344,5.7636719l-5.4179688,1.6142578     c-0.3066406-0.6152344-0.7109375-1.1723633-1.2099609-1.671875c-0.4228516-0.4228516-1.0087891-0.8066406-1.7578125-1.1523438     c-0.7490234-0.3461914-1.6611328-0.5380859-2.7373047-0.5766602c-0.6914063-0.0385742-1.4121094,0.0092773-2.1621094,0.144043     c-0.7490234,0.1347656-1.4121094,0.3745117-1.9882813,0.7207031c-0.5761719,0.3457031-1.0371094,0.8164063-1.3828125,1.4121094     c-0.3457031,0.5952148-0.4804688,1.3349609-0.4042969,2.21875c0.0771484,1.1914063,0.5957031,2.1035156,1.5566406,2.737793     s2.1328125,1.1816406,3.515625,1.6425781c1.3828125,0.4614258,2.8730469,0.9321289,4.4667969,1.4121094     c1.5947266,0.4799805,3.0644531,1.171875,4.4091797,2.074707c1.3447266,0.9033203,2.4697266,2.1132813,3.3720703,3.6313477     C262.5146484,66.1220703,262.9658203,68.1484375,262.9658203,70.6845703z"
   id="path85"
   style="fill:#ffffff;fill-opacity:1" />
		</g>
		<g
   id="g87"
   style="fill:#ffffff;fill-opacity:1">
			<polygon
   fill-rule="evenodd"
   clip-rule="evenodd"
   fill="#FFFFFF"
   points="281.061,48.6099 281.061,81.8086 274.951,81.8086 274.951,48.6099 266.133,48.6099 266.133,43.1919 289.994,43.1919 289.994,48.6099"
   id="polygon89"
   style="fill:#ffffff;fill-opacity:1" />
		</g>
		<g
   id="g91"
   style="fill:#ffffff;fill-opacity:1">
			<path
   fill-rule="evenodd"
   clip-rule="evenodd"
   fill="#FFFFFF"
   d="M318.4707031,81.8085938l-3.8037109-10.8359375h-12.0458984     l-3.8046875,10.8359375h-6.5117188l13.3134766-38.6166992h6.0517578l13.3144531,38.6166992H318.4707031z M308.7304688,53.9121094     l-3.9765625,10.8359375h7.7226563L308.7304688,53.9121094z"
   id="path93"
   style="fill:#ffffff;fill-opacity:1" />
		</g>
		<g
   id="g95"
   style="fill:#ffffff;fill-opacity:1">
			<polygon
   fill-rule="evenodd"
   clip-rule="evenodd"
   fill="#FFFFFF"
   points="342.372,48.6099 342.372,81.8086 336.263,81.8086 336.263,48.6099 327.444,48.6099 327.444,43.1919 351.306,43.1919 351.306,48.6099"
   id="polygon97"
   style="fill:#ffffff;fill-opacity:1" />
		</g>
		<g
   id="g99"
   style="fill:#ffffff;fill-opacity:1">
			<polygon
   fill-rule="evenodd"
   clip-rule="evenodd"
   fill="#FFFFFF"
   points="357.016,81.8086 357.016,43.1919 379.783,43.1919 379.783,49.3013 363.125,49.3013 363.125,58.7539 374.365,58.7539 374.365,64.9785 363.125,64.9785 363.125,75.584 380.993,75.584 380.993,81.8086"
   id="polygon101"
   style="fill:#ffffff;fill-opacity:1" />
		</g>
	</g>
</g>
<g
   id="g103"
   style="fill:#ffffff;fill-opacity:1">
	<path
   fill-rule="evenodd"
   clip-rule="evenodd"
   fill="#FFFFFF"
   d="M162.7744141,275.4853516v30.8017578h-19.3662109v-30.8017578   H82.1748047v-11.6191406l61.2333984-81.152832h19.3662109v75.065918h11.8037109v17.7060547H162.7744141z M143.4082031,211.3007813   l-35.2275391,46.4785156h35.2275391V211.3007813z"
   id="path105"
   style="fill:#ffffff;fill-opacity:1" />
	<path
   fill-rule="evenodd"
   clip-rule="evenodd"
   fill="#FFFFFF"
   d="M288.9990234,244.6845703   c0,9.8369141-1.1679688,19.2431641-3.5039063,28.21875c-2.3369141,8.9765625-5.65625,16.2304688-9.9599609,21.7636719   C268.6494141,303.8886719,258.6894531,308.5,245.65625,308.5c-8.7299805,0-15.9233398-1.7832031-21.5791016-5.3486328   c-5.65625-3.5654297-10.3286133-9.1601563-14.0175781-16.7841797c-2.5820313-5.2871094-4.6723633-11.7109375-6.2709961-19.2734375   c-1.5981445-7.5625-2.3974609-15.0322266-2.3974609-22.4091797c0-10.2060547,1.1987305-19.6728516,3.5966797-28.4033203   c2.3974609-8.7304688,5.6865234-16.0463867,9.8671875-21.9482422c3.6889648-4.6723633,8.0844727-8.1459961,13.1875-10.4208984   C233.1450195,181.6376953,239.262207,180.5,246.3945313,180.5c7.8691406,0,14.5703125,1.7832031,20.1035156,5.3486328   c5.5332031,3.5664063,10.2666016,9.1606445,14.2011719,16.7841797c2.5820313,5.5332031,4.6113281,11.9882813,6.0869141,19.3662109   C288.2617188,229.3759766,288.9990234,236.9384766,288.9990234,244.6845703z M269.4492188,244.6845703   c0-7.0087891-0.6152344-13.4951172-1.8447266-19.4580078c-1.2294922-5.9638672-3.0742188-11.0361328-5.5332031-15.2167969   c-1.9677734-3.1962891-4.2119141-5.5332031-6.7314453-7.0078125c-2.5214844-1.4765625-5.6259766-2.3369141-9.3144531-2.5825195   c-4.7958984-0.2456055-8.7919922,0.8608398-11.9887695,3.3198242s-5.840332,6.4550781-7.9306641,11.9882813   c-1.5986328,3.6884766-2.7973633,8.1464844-3.5966797,13.3720703s-1.1987305,10.4208984-1.1987305,15.5849609   c0,6.6396484,0.6147461,13.0341797,1.8442383,19.1816406s3.0737305,11.1894531,5.5332031,15.1240234   c1.9672852,3.1972656,4.3032227,5.5947266,7.0083008,7.1923828c2.7050781,1.5986328,6.0253906,2.3984375,9.9599609,2.3984375   c4.5488281,0,8.3300781-1.2294922,11.3427734-3.6894531c3.0126953-2.4589844,5.5634766-6.4550781,7.6542969-11.9882813   c0.6142578-1.5986328,1.2294922-3.5351563,1.8447266-5.8095703c0.6142578-2.2753906,1.1367188-4.671875,1.5673828-7.1933594   c0.4306641-2.5205078,0.7685547-5.0722656,1.0146484-7.6542969S269.4492188,247.1435547,269.4492188,244.6845703z"
   id="path107"
   style="fill:#ffffff;fill-opacity:1" />
	<path
   fill-rule="evenodd"
   clip-rule="evenodd"
   fill="#FFFFFF"
   d="M397.9433594,260.7304688   c0,6.8857422-1.3222656,13.21875-3.9658203,18.9970703c-2.6435547,5.7792969-6.3632813,10.8203125-11.1582031,15.1240234   c-4.7958984,4.3037109-10.4824219,7.6542969-17.0605469,10.0517578C359.1796875,307.3007813,351.9570313,308.5,344.0869141,308.5   c-5.4091797,0-10.7275391-0.6152344-15.9541016-1.84375c-5.2246094-1.2304688-9.9902344-2.9511719-14.2929688-5.1650391   l9.5898438-17.3369141c2.5820313,1.3525391,5.9638672,2.4287109,10.1445313,3.2275391   c4.1806641,0.7998047,8.5458984,1.1992188,13.0957031,1.1992188c4.4257813,0,8.5761719-0.7070313,12.4492188-2.1210938   s7.2539063-3.3505859,10.1445313-5.8095703c2.8886719-2.4599609,5.1328125-5.3798828,6.7314453-8.7617188   c1.5986328-3.3808594,2.3974609-7.1005859,2.3974609-11.1582031c0-3.0742188-0.5839844-5.9023438-1.7519531-8.484375   s-2.7666016-4.8564453-4.7949219-6.8242188c-2.0292969-1.9667969-4.3652344-3.5039063-7.0097656-4.6103516   c-2.6425781-1.1064453-5.5019531-1.6601563-8.5761719-1.6601563c-2.2128906,0-4.1494141,0.1845703-5.8095703,0.5537109   c-1.6591797,0.3681641-3.2275391,1.0449219-4.703125,2.0283203s-2.9511719,2.3056641-4.4267578,3.9658203   c-1.4746094,1.6601563-3.1347656,3.78125-4.9794922,6.3623047l-19.5498047-5.5322266l3.1347656-63.815918h71.0087891v19.550293   h-52.0117188l-1.2910156,20.2880859c4.5498047-1.3525391,8.1152344-2.2744141,10.6972656-2.7666016   c2.5820313-0.4912109,5.4101563-0.7373047,8.484375-0.7373047c5.65625,0,10.9736328,1.1064453,15.9541016,3.3193359   c4.9794922,2.2138672,9.3447266,5.2265625,13.0947266,9.0380859c3.7509766,3.8115234,6.7011719,8.2382813,8.8525391,13.2792969   C396.8671875,249.7255859,397.9433594,255.0742188,397.9433594,260.7304688z"
   id="path109"
   style="fill:#ffffff;fill-opacity:1" />
</g>
</svg>
